<svg width="24" height="23" viewBox="0 0 24 23" fill="none" xmlns="http://www.w3.org/2000/svg">
<g clip-path="url(#clip0_12164_420)" filter="url(#filter0_d_12164_420)">
<path d="M11.5578 0.838169C11.7454 0.482595 12.2546 0.482596 12.4422 0.838169L14.3305 4.41705C14.4028 4.55417 14.5347 4.64997 14.6874 4.67641L18.6747 5.36629C19.0708 5.43484 19.2282 5.91915 18.948 6.20745L16.1277 9.10921C16.0197 9.22039 15.9693 9.3754 15.9914 9.52886L16.5674 13.5341C16.6246 13.932 16.2126 14.2314 15.8519 14.054L12.2206 12.2685C12.0815 12.2001 11.9185 12.2001 11.7794 12.2685L8.14815 14.054C7.78737 14.2314 7.37539 13.932 7.43262 13.5341L8.00861 9.52886C8.03068 9.3754 7.98031 9.22039 7.87226 9.10921L5.05204 6.20745C4.77184 5.91915 4.92921 5.43484 5.32535 5.36629L9.31256 4.67641C9.46533 4.64997 9.59719 4.55417 9.66954 4.41705L11.5578 0.838169Z" fill="#FFC531"/>
</g>
<defs>
<filter id="filter0_d_12164_420" x="0" y="0" width="24" height="24" filterUnits="userSpaceOnUse" color-interpolation-filters="sRGB">
<feFlood flood-opacity="0" result="BackgroundImageFix"/>
<feColorMatrix in="SourceAlpha" type="matrix" values="0 0 0 0 0 0 0 0 0 0 0 0 0 0 0 0 0 0 127 0" result="hardAlpha"/>
<feOffset dy="4"/>
<feGaussianBlur stdDeviation="2"/>
<feComposite in2="hardAlpha" operator="out"/>
<feColorMatrix type="matrix" values="0 0 0 0 0 0 0 0 0 0 0 0 0 0 0 0 0 0 0.25 0"/>
<feBlend mode="normal" in2="BackgroundImageFix" result="effect1_dropShadow_12164_420"/>
<feBlend mode="normal" in="SourceGraphic" in2="effect1_dropShadow_12164_420" result="shape"/>
</filter>
<clipPath id="clip0_12164_420">
<rect width="16" height="16" fill="white" transform="translate(4)"/>
</clipPath>
</defs>
</svg>
